<mxfile host="65bd71144e">
    <diagram id="2AcwJYZwivwVQ44R1xg7" name="Page-1">
        <mxGraphModel dx="1244" dy="768" grid="1" gridSize="10" guides="1" tooltips="1" connect="1" arrows="1" fold="1" page="1" pageScale="1" pageWidth="850" pageHeight="1100" math="0" shadow="0">
            <root>
                <mxCell id="0"/>
                <mxCell id="1" parent="0"/>
                <mxCell id="7" style="edgeStyle=orthogonalEdgeStyle;html=1;" parent="1" source="2" target="6" edge="1">
                    <mxGeometry relative="1" as="geometry">
                        <Array as="points">
                            <mxPoint x="80" y="280"/>
                        </Array>
                    </mxGeometry>
                </mxCell>
                <mxCell id="2" value="Login" style="rounded=1;whiteSpace=wrap;html=1;" parent="1" vertex="1">
                    <mxGeometry x="20" y="130" width="120" height="60" as="geometry"/>
                </mxCell>
                <mxCell id="14" style="edgeStyle=orthogonalEdgeStyle;html=1;" parent="1" source="4" target="13" edge="1">
                    <mxGeometry relative="1" as="geometry">
                        <Array as="points">
                            <mxPoint x="530" y="180"/>
                            <mxPoint x="530" y="290"/>
                        </Array>
                    </mxGeometry>
                </mxCell>
                <mxCell id="4" value="With Telegram" style="rounded=1;whiteSpace=wrap;html=1;" parent="1" vertex="1">
                    <mxGeometry x="360" y="150" width="120" height="60" as="geometry"/>
                </mxCell>
                <mxCell id="15" style="edgeStyle=orthogonalEdgeStyle;html=1;entryX=0;entryY=0.5;entryDx=0;entryDy=0;" parent="1" source="5" target="13" edge="1">
                    <mxGeometry relative="1" as="geometry">
                        <Array as="points">
                            <mxPoint x="530" y="380"/>
                            <mxPoint x="530" y="290"/>
                        </Array>
                    </mxGeometry>
                </mxCell>
                <mxCell id="5" value="with breeze" style="rounded=1;whiteSpace=wrap;html=1;" parent="1" vertex="1">
                    <mxGeometry x="365" y="350" width="120" height="60" as="geometry"/>
                </mxCell>
                <mxCell id="9" style="edgeStyle=orthogonalEdgeStyle;html=1;" parent="1" source="6" target="4" edge="1">
                    <mxGeometry relative="1" as="geometry">
                        <Array as="points">
                            <mxPoint x="225" y="180"/>
                        </Array>
                    </mxGeometry>
                </mxCell>
                <mxCell id="11" value="True" style="edgeLabel;html=1;align=center;verticalAlign=middle;resizable=0;points=[];" parent="9" vertex="1" connectable="0">
                    <mxGeometry x="-0.0353" y="1" relative="1" as="geometry">
                        <mxPoint as="offset"/>
                    </mxGeometry>
                </mxCell>
                <mxCell id="10" style="edgeStyle=orthogonalEdgeStyle;html=1;" parent="1" source="6" target="5" edge="1">
                    <mxGeometry relative="1" as="geometry">
                        <Array as="points">
                            <mxPoint x="220" y="380"/>
                        </Array>
                    </mxGeometry>
                </mxCell>
                <mxCell id="12" value="False" style="edgeLabel;html=1;align=center;verticalAlign=middle;resizable=0;points=[];" parent="10" vertex="1" connectable="0">
                    <mxGeometry x="-0.1882" y="-1" relative="1" as="geometry">
                        <mxPoint as="offset"/>
                    </mxGeometry>
                </mxCell>
                <mxCell id="6" value="&amp;nbsp;in production ?" style="rhombus;whiteSpace=wrap;html=1;rounded=1;" parent="1" vertex="1">
                    <mxGeometry x="170" y="225" width="110" height="110" as="geometry"/>
                </mxCell>
                <mxCell id="18" style="edgeStyle=orthogonalEdgeStyle;html=1;" parent="1" source="13" target="16" edge="1">
                    <mxGeometry relative="1" as="geometry"/>
                </mxCell>
                <mxCell id="13" value="Access the dashboard" style="rounded=1;whiteSpace=wrap;html=1;" parent="1" vertex="1">
                    <mxGeometry x="600" y="260" width="120" height="60" as="geometry"/>
                </mxCell>
                <mxCell id="23" style="edgeStyle=orthogonalEdgeStyle;html=1;entryX=0;entryY=0.5;entryDx=0;entryDy=0;" parent="1" source="16" target="17" edge="1">
                    <mxGeometry relative="1" as="geometry">
                        <Array as="points">
                            <mxPoint x="920" y="440"/>
                            <mxPoint x="920" y="500"/>
                        </Array>
                    </mxGeometry>
                </mxCell>
                <mxCell id="27" style="edgeStyle=orthogonalEdgeStyle;html=1;" parent="1" source="16" target="22" edge="1">
                    <mxGeometry relative="1" as="geometry">
                        <mxPoint x="970" y="760" as="targetPoint"/>
                        <Array as="points">
                            <mxPoint x="920" y="440"/>
                            <mxPoint x="920" y="710"/>
                        </Array>
                    </mxGeometry>
                </mxCell>
                <mxCell id="31" style="edgeStyle=orthogonalEdgeStyle;html=1;" parent="1" source="16" target="29" edge="1">
                    <mxGeometry relative="1" as="geometry">
                        <Array as="points">
                            <mxPoint x="920" y="440"/>
                            <mxPoint x="920" y="920"/>
                        </Array>
                    </mxGeometry>
                </mxCell>
                <mxCell id="41" style="edgeStyle=orthogonalEdgeStyle;html=1;entryX=1;entryY=0.5;entryDx=0;entryDy=0;" edge="1" parent="1" source="16" target="40">
                    <mxGeometry relative="1" as="geometry">
                        <Array as="points">
                            <mxPoint x="920" y="440"/>
                            <mxPoint x="920" y="680"/>
                        </Array>
                    </mxGeometry>
                </mxCell>
                <mxCell id="51" style="edgeStyle=orthogonalEdgeStyle;html=1;" edge="1" parent="1" source="16" target="50">
                    <mxGeometry relative="1" as="geometry">
                        <Array as="points">
                            <mxPoint x="920" y="440"/>
                            <mxPoint x="920" y="1230"/>
                        </Array>
                    </mxGeometry>
                </mxCell>
                <mxCell id="16" value="Access the dashboard" style="rounded=1;whiteSpace=wrap;html=1;" parent="1" vertex="1">
                    <mxGeometry x="700" y="410" width="120" height="60" as="geometry"/>
                </mxCell>
                <mxCell id="24" style="edgeStyle=orthogonalEdgeStyle;html=1;entryX=0;entryY=0.75;entryDx=0;entryDy=0;" parent="1" source="17" target="20" edge="1">
                    <mxGeometry relative="1" as="geometry"/>
                </mxCell>
                <mxCell id="25" style="edgeStyle=orthogonalEdgeStyle;html=1;entryX=0;entryY=0.5;entryDx=0;entryDy=0;" parent="1" source="17" target="21" edge="1">
                    <mxGeometry relative="1" as="geometry"/>
                </mxCell>
                <mxCell id="17" value="List Websites" style="rounded=1;whiteSpace=wrap;html=1;" parent="1" vertex="1">
                    <mxGeometry x="1050" y="470" width="120" height="60" as="geometry"/>
                </mxCell>
                <mxCell id="20" value="add website to track" style="rounded=1;whiteSpace=wrap;html=1;" parent="1" vertex="1">
                    <mxGeometry x="1320" y="400" width="120" height="60" as="geometry"/>
                </mxCell>
                <mxCell id="21" value="remove website from tracking" style="rounded=1;whiteSpace=wrap;html=1;" parent="1" vertex="1">
                    <mxGeometry x="1320" y="530" width="120" height="60" as="geometry"/>
                </mxCell>
                <mxCell id="22" value="suggest website to track" style="rounded=1;whiteSpace=wrap;html=1;" parent="1" vertex="1">
                    <mxGeometry x="1050" y="680" width="120" height="60" as="geometry"/>
                </mxCell>
                <mxCell id="33" value="" style="edgeStyle=orthogonalEdgeStyle;html=1;" parent="1" source="29" target="32" edge="1">
                    <mxGeometry relative="1" as="geometry">
                        <Array as="points">
                            <mxPoint x="1260" y="920"/>
                            <mxPoint x="1260" y="850"/>
                        </Array>
                    </mxGeometry>
                </mxCell>
                <mxCell id="35" value="" style="edgeStyle=orthogonalEdgeStyle;html=1;" parent="1" source="29" target="34" edge="1">
                    <mxGeometry relative="1" as="geometry">
                        <Array as="points">
                            <mxPoint x="1260" y="920"/>
                            <mxPoint x="1260" y="1010"/>
                        </Array>
                    </mxGeometry>
                </mxCell>
                <mxCell id="29" value="Subscription" style="rounded=1;whiteSpace=wrap;html=1;" parent="1" vertex="1">
                    <mxGeometry x="1050" y="890" width="120" height="60" as="geometry"/>
                </mxCell>
                <mxCell id="32" value="List" style="whiteSpace=wrap;html=1;rounded=1;" parent="1" vertex="1">
                    <mxGeometry x="1320" y="820" width="120" height="60" as="geometry"/>
                </mxCell>
                <mxCell id="38" style="edgeStyle=orthogonalEdgeStyle;html=1;entryX=0;entryY=0.5;entryDx=0;entryDy=0;" parent="1" source="34" target="36" edge="1">
                    <mxGeometry relative="1" as="geometry"/>
                </mxCell>
                <mxCell id="39" style="edgeStyle=orthogonalEdgeStyle;html=1;" parent="1" source="34" target="37" edge="1">
                    <mxGeometry relative="1" as="geometry"/>
                </mxCell>
                <mxCell id="34" value="Pay" style="whiteSpace=wrap;html=1;rounded=1;" parent="1" vertex="1">
                    <mxGeometry x="1320" y="980" width="120" height="60" as="geometry"/>
                </mxCell>
                <mxCell id="62" value="" style="edgeStyle=orthogonalEdgeStyle;html=1;" edge="1" parent="1" source="36" target="61">
                    <mxGeometry relative="1" as="geometry"/>
                </mxCell>
                <mxCell id="36" value="Chargily" style="whiteSpace=wrap;html=1;rounded=1;" parent="1" vertex="1">
                    <mxGeometry x="1530" y="920" width="120" height="60" as="geometry"/>
                </mxCell>
                <mxCell id="64" value="" style="edgeStyle=orthogonalEdgeStyle;html=1;" edge="1" parent="1" source="37" target="63">
                    <mxGeometry relative="1" as="geometry"/>
                </mxCell>
                <mxCell id="37" value="Stripe" style="whiteSpace=wrap;html=1;rounded=1;" parent="1" vertex="1">
                    <mxGeometry x="1530" y="1040" width="120" height="60" as="geometry"/>
                </mxCell>
                <mxCell id="40" value="Logout" style="rounded=1;whiteSpace=wrap;html=1;" vertex="1" parent="1">
                    <mxGeometry x="700" y="650" width="120" height="60" as="geometry"/>
                </mxCell>
                <mxCell id="42" value="" style="html=1;verticalLabelPosition=bottom;labelBackgroundColor=#ffffff;verticalAlign=top;shadow=0;dashed=0;strokeWidth=2;shape=mxgraph.ios7.misc.select;fillColor=#0080f0;strokeColor=#ffffff;sketch=0;" vertex="1" parent="1">
                    <mxGeometry x="680" y="690" width="40" height="40" as="geometry"/>
                </mxCell>
                <mxCell id="43" value="" style="html=1;verticalLabelPosition=bottom;labelBackgroundColor=#ffffff;verticalAlign=top;shadow=0;dashed=0;strokeWidth=2;shape=mxgraph.ios7.misc.select;fillColor=#0080f0;strokeColor=#ffffff;sketch=0;" vertex="1" parent="1">
                    <mxGeometry x="460" y="390" width="40" height="40" as="geometry"/>
                </mxCell>
                <mxCell id="44" value="" style="html=1;verticalLabelPosition=bottom;labelBackgroundColor=#ffffff;verticalAlign=top;shadow=0;dashed=0;strokeWidth=2;shape=mxgraph.ios7.misc.select;fillColor=#0080f0;strokeColor=#ffffff;sketch=0;" vertex="1" parent="1">
                    <mxGeometry x="700" y="295" width="40" height="40" as="geometry"/>
                </mxCell>
                <mxCell id="45" value="" style="html=1;verticalLabelPosition=bottom;labelBackgroundColor=#ffffff;verticalAlign=top;shadow=0;dashed=0;strokeWidth=2;shape=mxgraph.ios7.misc.select;fillColor=#0080f0;strokeColor=#ffffff;sketch=0;" vertex="1" parent="1">
                    <mxGeometry x="790" y="450" width="40" height="40" as="geometry"/>
                </mxCell>
                <mxCell id="46" value="" style="html=1;verticalLabelPosition=bottom;labelBackgroundColor=#ffffff;verticalAlign=top;shadow=0;dashed=0;strokeWidth=2;shape=mxgraph.ios7.misc.select;fillColor=#0080f0;strokeColor=#ffffff;sketch=0;" vertex="1" parent="1">
                    <mxGeometry x="1420" y="570" width="40" height="40" as="geometry"/>
                </mxCell>
                <mxCell id="47" value="" style="html=1;verticalLabelPosition=bottom;labelBackgroundColor=#ffffff;verticalAlign=top;shadow=0;dashed=0;strokeWidth=2;shape=mxgraph.ios7.misc.select;fillColor=#0080f0;strokeColor=#ffffff;sketch=0;" vertex="1" parent="1">
                    <mxGeometry x="1420" y="440" width="40" height="40" as="geometry"/>
                </mxCell>
                <mxCell id="48" value="" style="html=1;verticalLabelPosition=bottom;labelBackgroundColor=#ffffff;verticalAlign=top;shadow=0;dashed=0;strokeWidth=2;shape=mxgraph.ios7.misc.select;fillColor=#0080f0;strokeColor=#ffffff;sketch=0;" vertex="1" parent="1">
                    <mxGeometry x="1150" y="510" width="40" height="40" as="geometry"/>
                </mxCell>
                <mxCell id="49" value="" style="html=1;verticalLabelPosition=bottom;labelBackgroundColor=#ffffff;verticalAlign=top;shadow=0;dashed=0;strokeWidth=2;shape=mxgraph.ios7.misc.select;fillColor=#0080f0;strokeColor=#ffffff;sketch=0;" vertex="1" parent="1">
                    <mxGeometry x="1150" y="720" width="40" height="40" as="geometry"/>
                </mxCell>
                <mxCell id="53" style="edgeStyle=orthogonalEdgeStyle;html=1;" edge="1" parent="1" source="50" target="52">
                    <mxGeometry relative="1" as="geometry"/>
                </mxCell>
                <mxCell id="50" value="Notification" style="rounded=1;whiteSpace=wrap;html=1;" vertex="1" parent="1">
                    <mxGeometry x="1040" y="1200" width="120" height="60" as="geometry"/>
                </mxCell>
                <mxCell id="55" style="edgeStyle=orthogonalEdgeStyle;html=1;" edge="1" parent="1" source="52" target="54">
                    <mxGeometry relative="1" as="geometry"/>
                </mxCell>
                <mxCell id="52" value="List Notification" style="whiteSpace=wrap;html=1;rounded=1;" vertex="1" parent="1">
                    <mxGeometry x="1320" y="1160" width="120" height="60" as="geometry"/>
                </mxCell>
                <mxCell id="54" value="Mark as seen" style="whiteSpace=wrap;html=1;rounded=1;" vertex="1" parent="1">
                    <mxGeometry x="1530" y="1180" width="120" height="60" as="geometry"/>
                </mxCell>
                <mxCell id="57" style="edgeStyle=orthogonalEdgeStyle;html=1;" edge="1" parent="1" source="56" target="52">
                    <mxGeometry relative="1" as="geometry"/>
                </mxCell>
                <mxCell id="56" value="Admin Notify user about new website beeing added" style="whiteSpace=wrap;html=1;rounded=1;" vertex="1" parent="1">
                    <mxGeometry x="1320" y="1310" width="120" height="60" as="geometry"/>
                </mxCell>
                <mxCell id="58" value="" style="html=1;verticalLabelPosition=bottom;labelBackgroundColor=#ffffff;verticalAlign=top;shadow=0;dashed=0;strokeWidth=2;shape=mxgraph.ios7.misc.select;fillColor=#0080f0;strokeColor=#ffffff;sketch=0;" vertex="1" parent="1">
                    <mxGeometry x="1410" y="850" width="40" height="40" as="geometry"/>
                </mxCell>
                <mxCell id="59" value="" style="html=1;verticalLabelPosition=bottom;labelBackgroundColor=#ffffff;verticalAlign=top;shadow=0;dashed=0;strokeWidth=2;shape=mxgraph.ios7.misc.select;fillColor=#0080f0;strokeColor=#ffffff;sketch=0;" vertex="1" parent="1">
                    <mxGeometry x="1410" y="1020" width="40" height="40" as="geometry"/>
                </mxCell>
                <mxCell id="60" value="" style="html=1;verticalLabelPosition=bottom;labelBackgroundColor=#ffffff;verticalAlign=top;shadow=0;dashed=0;strokeWidth=2;shape=mxgraph.ios7.misc.select;fillColor=#0080f0;strokeColor=#ffffff;sketch=0;" vertex="1" parent="1">
                    <mxGeometry x="1630" y="950" width="40" height="40" as="geometry"/>
                </mxCell>
                <mxCell id="61" value="enable production" style="whiteSpace=wrap;html=1;rounded=1;" vertex="1" parent="1">
                    <mxGeometry x="1730" y="860" width="120" height="60" as="geometry"/>
                </mxCell>
                <mxCell id="63" value="enable production" style="whiteSpace=wrap;html=1;rounded=1;" vertex="1" parent="1">
                    <mxGeometry x="1730" y="1040" width="120" height="60" as="geometry"/>
                </mxCell>
                <mxCell id="65" value="" style="html=1;verticalLabelPosition=bottom;labelBackgroundColor=#ffffff;verticalAlign=top;shadow=0;dashed=0;strokeWidth=2;shape=mxgraph.ios7.misc.select;fillColor=#0080f0;strokeColor=#ffffff;sketch=0;" vertex="1" parent="1">
                    <mxGeometry x="240" y="295" width="40" height="40" as="geometry"/>
                </mxCell>
                <mxCell id="66" value="" style="html=1;verticalLabelPosition=bottom;labelBackgroundColor=#ffffff;verticalAlign=top;shadow=0;dashed=0;strokeWidth=2;shape=mxgraph.ios7.misc.select;fillColor=#0080f0;strokeColor=#ffffff;sketch=0;" vertex="1" parent="1">
                    <mxGeometry x="110" y="170" width="40" height="40" as="geometry"/>
                </mxCell>
            </root>
        </mxGraphModel>
    </diagram>
</mxfile>